<svg width="124" height="22" viewBox="0 0 124 22" fill="none" xmlns="http://www.w3.org/2000/svg">
<g clip-path="url(#clip0_9:2)">
<path d="M18.427 3.55217L21.9792 0H0V21.9792H21.9792L18.427 18.427H3.55217V3.55217H18.427Z" fill="white"/>
<path d="M39.5481 21.9792C42.5524 21.9792 44.8562 20.4849 45.9147 17.5896L43.2373 16.5311C42.6614 18.2123 41.4628 19.3019 39.5481 19.3019C36.6684 19.3019 35.392 16.749 35.392 14.0094C35.392 11.3009 36.6684 8.7481 39.5481 8.7481C41.4628 8.7481 42.6614 9.82216 43.2373 11.5189L45.9147 10.4604C44.8562 7.54951 42.5524 6.07074 39.5481 6.07074C34.8628 6.07074 32.3255 9.77546 32.3255 14.0094C32.3255 18.2745 34.8628 21.9792 39.5481 21.9792Z" fill="white"/>
<path d="M57.8918 13.9005C57.8918 17.6363 56.5842 19.3019 54.1404 19.3019C51.9611 19.3019 50.8871 17.9943 50.8871 15.0679V6.35095H47.8206V16.1731C47.8206 19.9401 49.8597 21.9793 53.3309 21.9793C55.1833 21.9793 56.8177 21.3877 57.8918 19.7377V21.6991H60.9583V6.35095H57.8918V13.9005Z" fill="white"/>
<path d="M71.9558 6.07076C69.9478 6.07076 68.3912 6.77123 67.3171 8.01651V0H64.2817V21.6991H67.3171V20.0802C68.469 21.3877 70.0567 21.9792 71.9558 21.9792C76.252 21.9792 78.8827 18.5547 78.8827 14.0094C78.8827 9.1217 75.894 6.07076 71.9558 6.07076ZM71.4265 19.1618C68.8115 19.1618 67.0525 17.0759 67.0525 14.0094C67.0525 10.9585 68.8115 8.87264 71.4265 8.87264C74.0416 8.87264 75.8317 10.9429 75.8317 14.0094C75.8317 17.0915 74.0416 19.1618 71.4265 19.1618Z" fill="white"/>
<path d="M84.6425 3.70472V0H81.4515V3.70472H84.6425ZM84.5802 21.6991V6.35094H81.5293V21.6991H84.5802Z" fill="white"/>
<path d="M94.4282 21.9792C97.4324 21.9792 99.7362 20.4849 100.795 17.5896L98.1173 16.5311C97.5414 18.2123 96.3428 19.3019 94.4282 19.3019C91.5484 19.3019 90.272 16.749 90.272 14.0094C90.272 11.3009 91.5484 8.7481 94.4282 8.7481C96.3428 8.7481 97.5414 9.82216 98.1173 11.5189L100.795 10.4604C99.7362 7.54951 97.4324 6.07074 94.4282 6.07074C89.7428 6.07074 87.2055 9.77546 87.2055 14.0094C87.2055 18.2745 89.7428 21.9792 94.4282 21.9792Z" fill="white"/>
<path d="M106.095 21.9792C106.702 21.9792 107.511 21.8547 108.367 21.5434V18.9283C107.916 19.0684 107.496 19.1462 107.122 19.1462C106.344 19.1462 105.846 18.7259 105.846 17.6363V0H102.81V18.2123C102.81 20.8274 104.164 21.9792 106.095 21.9792Z" fill="white"/>
<path d="M123.137 13.5891C123.137 9.63536 120.974 6.07074 116.242 6.07074C111.416 6.07074 109.143 9.96225 109.143 14.1184C109.143 18.3368 111.463 21.9792 116.491 21.9792C119.059 21.9792 120.958 21.1075 122.639 19.3019L120.507 17.4184C119.339 18.7259 118.094 19.2085 116.506 19.2085C113.829 19.2085 112.319 17.574 112.21 14.9901H123.044C123.106 14.492 123.137 14.0094 123.137 13.5891ZM112.179 12.6085C112.428 10.4448 113.798 8.62357 116.288 8.62357C118.872 8.62357 120.226 10.5071 120.226 12.4839V12.6085H112.179Z" fill="white"/>
</g>
<defs>
<clipPath id="clip0_9:2">
<rect width="123.283" height="22" fill="white"/>
</clipPath>
</defs>
</svg>
