<svg width="18" height="18" viewBox="0 0 18 18" fill="none" xmlns="http://www.w3.org/2000/svg">
<g clip-path="url(#clip0_82:2402)">
<path d="M17.25 2.24997C16.5318 2.75658 15.7366 3.14406 14.895 3.39747C14.4433 2.87811 13.843 2.50999 13.1753 2.34292C12.5076 2.17584 11.8046 2.21787 11.1616 2.46331C10.5185 2.70876 9.96633 3.14577 9.57974 3.71526C9.19314 4.28475 8.99077 4.95923 9 5.64747V6.39747C7.68198 6.43165 6.37596 6.13933 5.19826 5.54656C4.02056 4.95378 3.00774 4.07895 2.25 2.99997C2.25 2.99997 -0.75 9.74997 6 12.75C4.4554 13.7984 2.61537 14.3242 0.75 14.25C7.5 18 15.75 14.25 15.75 5.62497C15.7493 5.41606 15.7292 5.20767 15.69 5.00247C16.4555 4.24759 16.9956 3.29451 17.25 2.24997Z" fill="#578CE9" stroke="#578CE9" stroke-width="2" stroke-linecap="round" stroke-linejoin="round"/>
</g>
<defs>
<clipPath id="clip0_82:2402">
<rect width="18" height="18" fill="white"/>
</clipPath>
</defs>
</svg>
